<svg width="182" height="30" viewBox="0 0 182 30" fill="none" xmlns="http://www.w3.org/2000/svg">
<path d="M42.9989 8.13696L46.9462 17.7681H47.1147L51.062 8.13696H54.7993V22.4722H51.8603V13.1417H51.741L48.0309 22.4022H46.0287L42.3186 13.1067H42.1993V22.4722H39.2603V8.13696H42.9976H42.9989Z" fill="black"/>
<path d="M55.4258 17.1449C55.4258 13.8274 57.4772 11.5803 60.6405 11.5803C63.4824 11.5803 65.6945 13.3868 65.6945 17.0399V17.8589H58.3726V17.8654C58.3726 19.4684 59.3174 20.4546 60.8089 20.4546C61.8029 20.4546 62.5727 20.0283 62.8733 19.2093L65.631 19.3907C65.2111 21.3851 63.4189 22.681 60.7597 22.681C57.4487 22.681 55.4258 20.5531 55.4258 17.1449ZM62.8876 16.011C62.8811 14.7306 61.9843 13.8067 60.6897 13.8067C59.3951 13.8067 58.4361 14.7864 58.3726 16.011H62.8876Z" fill="black"/>
<path d="M71.9794 13.9608H69.9565V19.169C69.9565 19.9945 70.3698 20.2187 70.9647 20.2187C71.2446 20.2187 71.5595 20.1487 71.7059 20.1202L72.175 22.3388C71.8744 22.4373 71.3288 22.5902 70.559 22.6187C68.3962 22.7094 66.9616 21.6675 66.9759 19.5604V13.9608H65.5063V11.7215H66.9759V9.14526H69.9578V11.7215H71.9806V13.9608H71.9794Z" fill="black"/>
<path d="M72.0347 19.4697C72.0347 17.0684 73.9461 16.3543 76.074 16.1586C77.9427 15.9772 78.6787 15.8852 78.6787 15.1932V15.1517C78.6787 14.2692 78.0982 13.7586 77.0822 13.7586C76.0118 13.7586 75.3742 14.2835 75.172 14.9975L72.4144 14.7733C72.8278 12.8139 74.5215 11.5815 77.0964 11.5815C79.49 11.5815 81.6606 12.6597 81.6606 15.2217V22.4736H78.8329V20.982H78.7487C78.2239 21.9824 77.1949 22.6757 75.6062 22.6757C73.5548 22.6757 72.036 21.5975 72.036 19.4697H72.0347ZM78.6982 18.6299V17.4895C78.3418 17.728 77.2779 17.8809 76.626 17.9729C75.5764 18.1193 74.883 18.5327 74.883 19.3725C74.883 20.2122 75.5414 20.6178 76.4576 20.6178C77.7664 20.6178 78.6969 19.7574 78.6969 18.6299H78.6982Z" fill="black"/>
<path d="M85.5795 22.4722H82.5977V8.13696H85.5795V22.4722Z" fill="black"/>
<path d="M89.8281 8.13684H95.5677C98.7309 8.13684 100.327 9.66211 100.327 11.812C100.327 13.4993 99.2286 14.5554 97.7383 14.8923V15.0323C99.3685 15.1088 100.887 16.3904 100.887 18.5105C100.887 20.7926 99.1728 22.472 95.9525 22.472H89.8281V8.13684ZM95.1063 14.1355C96.3452 14.1355 97.2692 13.45 97.2692 12.3161C97.2692 11.2807 96.5059 10.5874 95.162 10.5874H92.8592V14.1368H95.1063V14.1355ZM95.3305 19.9943C97.0242 19.9943 97.759 19.2867 97.759 18.2098C97.759 17.0267 96.8558 16.1869 95.4005 16.1869H92.8592V19.9943H95.3305Z" fill="black"/>
<path d="M104.403 22.472H101.421V8.13684H104.403V22.472Z" fill="black"/>
<path d="M104.969 17.1384C104.969 13.8067 106.998 11.5803 110.26 11.5803C113.522 11.5803 115.551 13.8067 115.551 17.1384C115.551 20.4702 113.522 22.6823 110.26 22.6823C106.998 22.6823 104.969 20.4494 104.969 17.1384ZM112.521 17.1177C112.521 15.2412 111.751 13.8559 110.274 13.8559C108.797 13.8559 108 15.2412 108 17.1177C108 18.9941 108.77 20.3717 110.274 20.3717C111.779 20.3717 112.521 18.9928 112.521 17.1177Z" fill="black"/>
<path d="M115.686 17.1384C115.686 13.8417 117.702 11.5803 120.964 11.5803C123.771 11.5803 125.654 13.2119 125.78 15.6961H122.966C122.806 14.6257 122.106 13.9039 121.013 13.9039C119.628 13.9039 118.718 15.0663 118.718 17.0957C118.718 19.125 119.622 20.3224 121.013 20.3224C122.036 20.3224 122.791 19.6784 122.966 18.5302H125.78C125.64 21.0015 123.841 22.681 120.978 22.681C117.667 22.681 115.687 20.4067 115.687 17.1371L115.686 17.1384Z" fill="black"/>
<path d="M126.319 8.13696H129.301V15.8009H129.461L132.904 11.7201H136.327L132.337 16.375L136.529 22.4722H133.037L130.104 18.14L129.299 19.0575V22.4735H126.317V8.13696H126.319Z" fill="black"/>
<path d="M135.523 17.1383C135.523 13.8415 137.54 11.5802 140.802 11.5802C143.609 11.5802 145.491 13.2117 145.617 15.696H142.804C142.643 14.6256 141.943 13.9037 140.851 13.9037C139.466 13.9037 138.556 15.0662 138.556 17.0955C138.556 19.1249 139.459 20.3223 140.851 20.3223C141.873 20.3223 142.629 19.6783 142.804 18.5301H145.617C145.477 21.0014 143.679 22.6808 140.816 22.6808C137.505 22.6808 135.525 20.4066 135.525 17.137L135.523 17.1383Z" fill="black"/>
<path d="M149.138 22.4722H146.156V8.13696H149.054V13.6173H149.18C149.669 12.3499 150.762 11.5802 152.392 11.5802C154.631 11.5802 156.117 13.1067 156.109 15.6259V22.4709H153.127V16.1573C153.133 14.8342 152.419 14.0579 151.209 14.0579C149.999 14.0579 149.145 14.8704 149.137 16.2558V22.4709L149.138 22.4722Z" fill="black"/>
<path d="M156.579 19.4698C156.579 17.0685 158.491 16.3545 160.618 16.1588C162.487 15.9773 163.223 15.8853 163.223 15.1933V15.1519C163.223 14.2694 162.643 13.7588 161.627 13.7588C160.556 13.7588 159.919 14.2836 159.716 14.9976L156.959 14.7735C157.372 12.8141 159.066 11.5817 161.641 11.5817C164.034 11.5817 166.205 12.6599 166.205 15.2218V22.4737H163.377V20.9821H163.293C162.768 21.9825 161.739 22.6758 160.151 22.6758C158.099 22.6758 156.58 21.5976 156.58 19.4698H156.579ZM163.243 18.63V17.4897C162.886 17.7281 161.822 17.881 161.17 17.973C160.121 18.1195 159.427 18.5329 159.427 19.3726C159.427 20.2123 160.086 20.618 161.002 20.618C162.311 20.618 163.241 19.7575 163.241 18.63H163.243Z" fill="black"/>
<path d="M167.031 8.82265C167.031 7.99717 167.759 7.31812 168.64 7.31812C169.521 7.31812 170.256 7.99717 170.256 8.82265C170.256 9.64814 169.528 10.335 168.64 10.335C167.753 10.335 167.031 9.65591 167.031 8.82265ZM167.142 11.7203H170.124V22.471H167.142V11.7203Z" fill="black"/>
<path d="M174.106 22.4723H171.125V11.7203H173.966V13.6175H174.092C174.575 12.3643 175.73 11.5803 177.327 11.5803C179.566 11.5803 181.036 13.1198 181.036 15.6261V22.471H178.054V16.1574C178.06 14.8421 177.34 14.0581 176.142 14.0581C174.945 14.0581 174.113 14.8706 174.105 16.2559V22.471L174.106 22.4723Z" fill="black"/>
<path d="M30 0H0V30H30V0Z" fill="url(#paint0_linear_10_170)"/>
<path d="M19.3335 7.29468L15.0907 17.6489H14.9093L10.6652 7.29468H6.64795V22.7055H9.80734V12.6377H9.93564L13.9244 22.629H16.0756L20.0644 12.6752H20.1914V17.9651H23.3521V7.29468H19.3335Z" fill="white"/>
<path d="M23.3521 19.5449H20.1914V22.7056H23.3521V19.5449Z" fill="white"/>
<defs>
<linearGradient id="paint0_linear_10_170" x1="-1.2622" y1="0.098488" x2="30.1102" y2="28.8454" gradientUnits="userSpaceOnUse">
<stop stop-color="#FC9237"/>
<stop offset="0.48" stop-color="#7013C5"/>
<stop offset="1" stop-color="#20BF55"/>
</linearGradient>
</defs>
</svg>
